<?xml version="1.0" encoding="UTF-8"?>
<svg width="278px" height="101px" viewBox="0 0 278 101" version="1.1" xmlns="http://www.w3.org/2000/svg" xmlns:xlink="http://www.w3.org/1999/xlink">
    <!-- Generator: Sketch 59.1 (86144) - https://sketch.com -->
    <title>jacks-logos</title>
    <desc>Created with Sketch.</desc>
    <g id="Page-1" stroke="none" stroke-width="1" fill="none" fill-rule="evenodd">
        <g id="Group" fill="#D0021B">
            <rect id="Rectangle" x="39" y="39" width="28" height="9" rx="2"></rect>
            <rect id="Rectangle" x="59" y="46" width="8" height="7"></rect>
            <path d="M56,39 C62.0751322,39 67,43.9248678 67,50 L67,88 C67,94.0751322 62.0751322,99 56,99 L11,99 C4.92486775,99 4.29670281e-15,94.0751322 0,88 L0,50 C-7.43989126e-16,43.9248678 4.92486775,39 11,39 L56,39 Z M32.3957219,45 C29.6490651,45 27.4224599,47.1846846 27.4224599,49.8796296 C27.4224599,51.8789589 28.6479564,53.5974471 30.4021252,54.3513891 L30.4021252,54.3513891 L31.0394406,62.8411913 L15.2074278,55.0986319 C15.2223333,54.9349933 15.2299465,54.7692949 15.2299465,54.6018519 C15.2299465,51.559172 12.7160374,49.0925926 9.61497326,49.0925926 C6.51390916,49.0925926 4,51.559172 4,54.6018519 C4,57.6445317 6.51390916,60.1111111 9.61497326,60.1111111 C11.1465477,60.1111111 12.5349009,59.5094529 13.5474464,58.5336849 C16.0102921,60.7961092 18.2637059,62.6077112 20.3076878,63.968491 C23.3534273,65.9961902 26.3041119,67.8713742 29.1597415,69.5940429 C25.951463,73.056213 23.6251053,75.7244765 22.1806683,77.5988334 C20.7362313,79.4731904 18.4867138,82.0815667 15.4321157,85.4239624 C15.6611166,86.4399494 15.9298086,87.117487 16.2381916,87.4565752 C16.5465746,87.7956635 17.1677164,88.0965589 18.1016169,88.3592614 L18.1016169,88.3592614 L32.8570305,75.3786779 C32.9243854,75.4043489 33.2180468,76.9138525 33.7435795,79.9048062 C34.0176774,81.4647741 34.3015415,82.9546 34.5942363,84.3729535 C32.791391,85.4876339 31.5935829,87.4584208 31.5935829,89.7037037 C31.5935829,93.1810521 34.4666219,96 38.0106952,96 C41.5547684,96 44.4278075,93.1810521 44.4278075,89.7037037 C44.4278075,86.7156199 42.3063679,84.2136962 39.4613192,83.5687267 C39.4160289,81.9614148 39.3195224,80.5419486 39.3195224,79.9048062 L39.3195224,79.9048062 L39.3195224,75.0645985 L39.9335854,75.345007 C41.7532985,76.1772376 43.3707295,76.928513 44.7858783,77.5988334 C47.2317103,78.7573624 49.9369462,80.0338932 52.9019328,81.4279108 C52.8155784,81.8118932 52.7700535,82.2109154 52.7700535,82.6203704 C52.7700535,85.6630502 55.2839626,88.1296296 58.3850267,88.1296296 C61.4860908,88.1296296 64,85.6630502 64,82.6203704 C64,79.5776905 61.4860908,77.1111111 58.3850267,77.1111111 C57.3342357,77.1111111 56.3508608,77.3943196 55.5093733,77.8875224 C51.2524548,75.0627157 48.4157023,73.1979898 46.9991157,72.2933446 C45.2689167,71.1884237 43.2371795,69.8544622 40.9039041,68.2914602 L40.9039041,68.2914602 L55.0664436,51.5499518 L55.1619441,51.4137576 C55.6966335,50.6008203 55.5416764,49.8639876 54.6970731,49.2032596 C54.4330652,48.9967278 53.4552116,47.9721176 52.383804,48.7511138 C50.6860586,49.9855061 45.605347,54.4231416 37.1416693,62.0640201 L37.1416693,62.0640201 L35.0551373,54.0037298 C36.4458448,53.1385769 37.368984,51.6148789 37.368984,49.8796296 C37.368984,47.1846846 35.1423787,45 32.3957219,45 Z" id="Combined-Shape-Copy-5"></path>
            <path d="M87.7826087,23.1176471 C87.260867,22.5294088 87,21.8235335 87,21 C87,20.1764665 87.260867,19.4705912 87.7826087,18.8823529 C88.3043504,18.2941147 89.0289809,18 89.9565217,18 C90.8840626,18 91.6231857,18.2941147 92.173913,18.8823529 C92.7246404,19.4705912 93,20.1764665 93,21 C93,21.8235335 92.7246404,22.5294088 92.173913,23.1176471 C91.6231857,23.7058853 90.8840626,24 89.9565217,24 C89.0289809,24 88.3043504,23.7058853 87.7826087,23.1176471 Z M76,98.6842105 C76,97.6315737 76.6745495,96.8947389 78.0236686,96.4736842 C82.2958793,95.21052 85.1814521,93.0701905 86.6804734,90.0526316 C88.1794947,87.0350726 88.9289941,82.8947632 88.9289941,77.6315789 L88.9289941,43.9473684 L81.5088757,43.9473684 C80.7593651,43.9473684 80.1410281,43.7193005 79.6538462,43.2631579 C79.1666642,42.8070153 78.9230769,42.2280737 78.9230769,41.5263158 C78.9230769,40.8245579 79.1666642,40.2280726 79.6538462,39.7368421 C80.1410281,39.2456116 80.7593651,39 81.5088757,39 L92.4142012,39 C94.1380757,39 95,39.8070095 95,41.4210526 L95,77.6315789 C95,83.8070484 94.0443883,88.6666489 92.1331361,92.2105263 C90.2218839,95.7544037 86.6055493,98.5438495 81.2840237,100.578947 C80.534513,100.859651 79.8224886,101 79.147929,101 C77.0492992,101 76,100.228078 76,98.6842105 Z M134,62.8394161 C129.357775,61.6131326 125.401393,61 122.130734,61 C118.860075,61 116.187319,61.6131326 114.112385,62.8394161 C112.037451,64.0656996 111,65.785877 111,68 C111,70.214123 111.668189,71.9343004 113.004587,73.1605839 C114.340985,74.3868674 116.169713,75 118.490826,75 C124.961806,75 130.131479,71.593708 134,64.7810219 L134,62.8394161 Z M142.560386,73.213198 L146.611111,73.213198 C147.303546,73.213198 147.874796,73.4500822 148.324879,73.9238579 C148.774962,74.3976335 149,74.9729239 149,75.6497462 C149,76.3265685 148.774962,76.8849386 148.324879,77.3248731 C147.874796,77.7648076 147.303546,77.9847716 146.611111,77.9847716 L142.041063,77.9847716 C139.548297,77.9847716 137.626818,77.4433218 136.27657,76.3604061 C134.926322,75.2774904 134.251208,73.7546629 134.251208,71.7918782 C134.251208,71.453467 134.285829,71.0812203 134.355072,70.6751269 C130.685167,76.2250701 125.353497,79 118.359903,79 C114.482267,79 111.452909,77.9847817 109.271739,75.9543147 C107.090569,73.9238477 106,71.0981569 106,67.4771574 C106,63.8561579 107.471402,61.0135467 110.414251,58.9492386 C113.3571,56.8849305 117.026951,55.8527919 121.423913,55.8527919 C125.820875,55.8527919 130.096598,56.5634447 134.251208,57.9847716 L134.251208,50.9796954 C134.251208,47.7309482 133.039465,45.6328305 130.615942,44.6852792 C128.746367,44.0084569 126.167086,43.6700508 122.878019,43.6700508 C119.588953,43.6700508 116.559595,44.2115005 113.789855,45.2944162 L113.789855,51.6903553 C113.789855,52.3671777 113.512885,52.9255477 112.958937,53.3654822 C112.404989,53.8054168 111.747186,54.0253807 110.985507,54.0253807 C110.223829,54.0253807 109.566025,53.8054168 109.012077,53.3654822 C108.458129,52.9255477 108.181159,52.3671777 108.181159,51.6903553 L108.181159,43.9746193 C108.181159,43.0947503 108.631235,42.4179381 109.531401,41.9441624 C112.924333,39.9813777 117.425093,39 123.033816,39 C128.64254,39 132.831709,39.8967761 135.601449,41.6903553 C138.371189,43.4839345 139.756039,46.5803503 139.756039,50.9796954 L139.756039,71.284264 C139.756039,72.5702264 140.690812,73.213198 142.560386,73.213198 Z M183.954545,68.2385787 C184.515154,67.4263919 185.093274,67.0203046 185.68892,67.0203046 C186.284567,67.0203046 186.897724,67.155667 187.528409,67.4263959 C188.509475,67.8324893 189,68.3908594 189,69.1015228 C189,69.8121863 188.894887,70.3367157 188.684659,70.6751269 C185.110778,76.2250701 179.434698,79 171.65625,79 C165.699781,79 160.934677,77.054165 157.360795,73.1624365 C153.786914,69.2707081 152,64.4822619 152,58.7969543 C152,53.1116467 153.874508,48.3908817 157.62358,44.6345178 C161.372651,40.8781538 166.032643,39 171.603693,39 C177.174744,39 182.027441,40.2521025 186.161932,42.7563452 C187.002845,43.297803 187.423295,43.9407746 187.423295,44.6852792 L187.423295,53.213198 C187.423295,53.8900203 187.142995,54.4483904 186.582386,54.8883249 C186.021777,55.3282594 185.356064,55.5482234 184.585227,55.5482234 C183.81439,55.5482234 183.148677,55.3282594 182.588068,54.8883249 C182.027459,54.4483904 181.747159,53.8900203 181.747159,53.213198 L181.747159,46.0050761 C178.944115,44.4483848 175.580512,43.6700508 171.65625,43.6700508 C167.731988,43.6700508 164.403423,45.0913563 161.670455,47.9340102 C158.937486,50.776664 157.571023,54.4483701 157.571023,58.9492386 C157.571023,63.4501071 158.88493,67.1387335 161.512784,70.0152284 C164.140638,72.8917234 167.52176,74.3299492 171.65625,74.3299492 C177.122186,74.3299492 181.221577,72.2995127 183.954545,68.2385787 Z M206,54.3259259 C209.138,54.7753109 212.34727,55 215.627907,55 C218.908544,55 221.95735,54.4061788 224.774419,53.2185185 C227.591487,52.0308583 229,50.1210008 229,47.4888889 C229,43.8296113 226.539559,42 221.618605,42 C214.986013,42 209.779864,45.1456476 206,51.437037 L206,54.3259259 Z M235.643653,74.2184211 C236.326655,74.2184211 236.890124,74.4436381 237.334076,74.8940789 C237.778027,75.3445198 238,75.9162246 238,76.6092105 C238,77.3021964 237.778027,77.8739013 237.334076,78.3243421 C236.890124,78.774783 236.326655,79 235.643653,79 C229.564929,79 224.015615,77.3195343 218.995546,73.9585526 C213.975476,70.5975709 209.860447,66.3877446 206.650334,61.3289474 L206.650334,76.6092105 C206.650334,77.3021964 206.377137,77.8739013 205.830735,78.3243421 C205.284333,78.774783 204.63549,79 203.884187,79 C203.132884,79 202.484041,78.774783 201.937639,78.3243421 C201.391237,77.8739013 201.11804,77.3021964 201.11804,76.6092105 L201.11804,4.88552632 L194.356347,4.88552632 C193.673345,4.88552632 193.109876,4.66030927 192.665924,4.20986842 C192.221973,3.75942757 192,3.18772276 192,2.49473684 C192,1.80175092 192.221973,1.21272172 192.665924,0.727631579 C193.109876,0.242541434 193.673345,0 194.356347,0 L203.884187,0 C204.56719,0 205.198958,0.242541434 205.77951,0.727631579 C206.360062,1.21272172 206.650334,1.80175092 206.650334,2.49473684 L206.650334,46.0486842 C210.61175,40.5740954 215.597594,37.8368421 221.608018,37.8368421 C225.501133,37.8368421 228.574599,38.7550347 230.828508,40.5914474 C233.082417,42.4278601 234.209354,44.9745451 234.209354,48.2315789 C234.209354,51.4886128 233.184865,54.1219198 231.135857,56.1315789 C227.789144,59.3886128 223.076497,61.0171053 216.997773,61.0171053 C214.743864,61.0171053 212.729036,60.7745638 210.953229,60.2894737 C213.890141,64.2394934 217.595375,67.5484516 222.069042,70.2164474 C226.54271,72.8844432 231.067535,74.2184211 235.643653,74.2184211 Z M244,74.0253807 L244,65.8020305 C244,65.1252081 244.281571,64.5668381 244.84472,64.1269036 C245.40787,63.686969 246.076601,63.4670051 246.850932,63.4670051 C247.625263,63.4670051 248.293993,63.686969 248.857143,64.1269036 C249.420293,64.5668381 249.701863,65.1252081 249.701863,65.8020305 L249.701863,72.7055838 C253.080762,73.7884995 256.600396,74.3299492 260.26087,74.3299492 C268.285754,74.3299492 272.298137,72.1641503 272.298137,67.8324873 C272.298137,64.5837401 268.532129,62.1810569 261,60.6243655 C260.648031,60.5566832 259.873712,60.3874802 258.677019,60.1167513 C257.480325,59.8460223 256.494828,59.6260584 255.720497,59.4568528 C254.946166,59.2876472 253.6615,58.8815599 251.86646,58.2385787 C250.07142,57.5955975 248.786753,56.9357056 248.012422,56.2588832 C245.900611,54.4314629 244.84472,52.1810624 244.84472,49.5076142 C244.84472,46.834166 245.777423,44.668367 247.642857,43.0101523 C249.508291,41.3519376 251.567277,40.2690381 253.819876,39.7614213 C256.072475,39.2538046 258.536219,39 261.21118,39 C266.138741,39 270.679068,39.9136964 274.832298,41.7411168 C276.099385,42.2825746 276.732919,43.027068 276.732919,43.9746193 L276.732919,51.7918782 C276.732919,52.4687005 276.451349,53.0270706 275.888199,53.4670051 C275.325049,53.9069396 274.656319,54.1269036 273.881988,54.1269036 C273.107657,54.1269036 272.438926,53.9069396 271.875776,53.4670051 C271.312627,53.0270706 271.031056,52.4687005 271.031056,51.7918782 L271.031056,45.2944162 C268.215307,44.2115005 264.942048,43.6700508 261.21118,43.6700508 C254.03102,43.6700508 250.440994,45.6328061 250.440994,49.5583756 C250.440994,50.9797025 250.916144,51.9610802 251.86646,52.5025381 C252.816775,53.0439959 253.520702,53.4500832 253.978261,53.7208122 C254.43582,53.9915411 255.262934,54.262266 256.459627,54.5329949 C258.149077,54.9390883 259.873697,55.311335 261.63354,55.6497462 C263.393384,55.9881574 264.836433,56.2927228 265.962733,56.5634518 C267.089033,56.8341807 268.514484,57.2910289 270.23913,57.9340102 C271.963777,58.5769914 273.318836,59.3045645 274.304348,60.1167513 C276.768128,62.0118538 278,64.4822183 278,67.5279188 C278,70.5736193 276.961708,72.9932228 274.885093,74.786802 C272.808478,76.5803812 270.555913,77.7309619 268.127329,78.2385787 C265.698746,78.7461954 263.076619,79 260.26087,79 C254.699765,79 249.913064,78.1201442 245.900621,76.3604061 C244.633534,75.8189482 244,75.0406142 244,74.0253807 Z" id="jacks" fill-rule="nonzero"></path>
        </g>
    </g>
</svg>